# xmcd
#
# Track frame offsets:
#	150
#	15302
#	32928
#	45454
#	62854
#	79280
#	91431
#	106057
#	119708
#	134860
#	148436
#	165913
#	183239
#
# Disc length: 2623 seconds
#
# Revision: 0
# Processed by: cddbd v1.5.2PL0 Copyright (c) Steve Scherf et al.
# Submitted via: audiograbber 1.83.01
#
DISCID=b70a3d0d
DTITLE=Saddle Ridge Band - Blue Collar Fast Lane
DYEAR=2006
DGENRE=Country
TTITLE0=Blue Collar Fast Lane 
TTITLE1=Upside Down 
TTITLE2=Can't Treat That Woman Right 
TTITLE3=Me Myself and I 
TTITLE4=Ride
TTITLE5=Can't Get Over Loving You 
TTITLE6=Fool's Game 
TTITLE7=Take A Number 
TTITLE8=I Promise To
TTITLE9=My Love Love Me Tonight 
TTITLE10=We've Been Friends Forever 
TTITLE11=She Ain't Just Anybody's Woman 
TTITLE12=Wish
EXTD=Winnipeg, Manitoba, Canada\n2006 Ronch Music - 101006
EXTT0=
EXTT1=
EXTT2=
EXTT3=
EXTT4=
EXTT5=
EXTT6=
EXTT7=
EXTT8=
EXTT9=
EXTT10=
EXTT11=
EXTT12=
PLAYORDER=
